<svg width="20" height="19" viewBox="0 0 20 19" xmlns="http://www.w3.org/2000/svg"><g fill="none" fill-rule="evenodd"><path d="M19.914 7.327c0-.357-.381-.5-.667-.548l-5.983-.87-2.68-5.42C10.475.262 10.273 0 9.998 0c-.274 0-.477.262-.584.488L6.734 5.91.75 6.78c-.297.048-.667.19-.667.548 0 .215.155.417.298.572l4.338 4.218-1.025 5.957c-.012.083-.024.155-.024.238 0 .31.155.596.5.596.168 0 .322-.06.477-.143L10 15.953l5.35 2.812c.144.083.31.143.478.143.345 0 .488-.286.488-.596 0-.083 0-.155-.012-.238l-1.025-5.957 4.326-4.218c.155-.155.31-.357.31-.572z" fill="#CCC"/><path d="M4.885 18.64l-.238.125c-.155.083-.31.143-.476.143-.346 0-.5-.286-.5-.596 0-.083.011-.155.023-.238l1.025-5.957L.382 7.899c-.143-.155-.298-.357-.298-.571 0-.358.37-.501.667-.549l4.136-.601-.002 12.462z" fill="#26BEC9"/></g></svg>